# xmcd CD database file
# Copyright (C) 1995 Ti Kan
#
# Track frame offsets:
#	150
#	14663
#	33485
#	45125
#	66940
#	82203
#	96890
#	111895
#	127945
#	146458
#	158173
#	169605
#	180330
#	192120
#	200770
#	214440
#	225170
#	234685
#	247488
#
# Disc length: 3466 seconds
#
# Revision: 1
# Processed by: cddbd v1.4b41PL1 Copyright (c) Steve Scherf et al.
# Submitted via: NotifyCDPlayer(CDDB) 1.05
#
DISCID=0a0d8813
DTITLE=Pete Fountain and Al Hirt - Allegiance Extra
DYEAR=1900
DGENRE=
TTITLE0=Blue Eyes Crying In The Rain
TTITLE1=I'm So Lonesome I Could Cry
TTITLE2=Sunset In Paradise
TTITLE3=The World Is Waiting For The Sunrise
TTITLE4=I'm Going Home
TTITLE5=Farewell Blues
TTITLE6=That's A-Plenty
TTITLE7=High Society
TTITLE8=In The shade of the Old Apple Tree
TTITLE9=Bayou Blues
TTITLE10=Faded Love (Al Hirt)
TTITLE11=Lonesome Street
TTITLE12=Orange Blossom Special
TTITLE13=Louisiana Man
TTITLE14=Oh Lonesome Me
TTITLE15=Break My Mind
TTITLE16=I Walk The Line
TTITLE17=When My Blue Moon Turns To Gold
TTITLE18=I Really don't Want to Know
EXTD=
EXTT0=
EXTT1=
EXTT2=
EXTT3=
EXTT4=
EXTT5=
EXTT6=
EXTT7=
EXTT8=
EXTT9=
EXTT10=
EXTT11=
EXTT12=
EXTT13=
EXTT14=
EXTT15=
EXTT16=
EXTT17=
EXTT18=
PLAYORDER=
